<svg height="512.00009pt" viewBox="0 0 512.00009 512.00009" width="512.00009pt" xmlns="http://www.w3.org/2000/svg"><path d="m413.773438 86.910156 11.316406-11.3125 11.3125 11.316406-11.316406 11.3125zm0 0"/><path d="m230.339844 241.65625 11.3125-11.316406 40 40-11.3125 11.3125zm0 0"/><path d="m230.339844 270.347656 40-40 11.3125 11.3125-40 40zm0 0"/><path d="m256 160c-53.019531 0-96 42.980469-96 96s42.980469 96 96 96 96-42.980469 96-96c-.058594-52.996094-43.003906-95.941406-96-96zm0 176c-44.183594 0-80-35.816406-80-80s35.816406-80 80-80 80 35.816406 80 80c-.046875 44.164062-35.835938 79.953125-80 80zm0 0"/><path d="m256 192c-35.347656 0-64 28.652344-64 64s28.652344 64 64 64 64-28.652344 64-64c-.039062-35.328125-28.671875-63.960938-64-64zm0 112c-26.507812 0-48-21.492188-48-48s21.492188-48 48-48 48 21.492188 48 48c-.027344 26.5-21.5 47.972656-48 48zm0 0"/><path d="m466.59375 110.960938c6.421875-11.011719 8.152344-24.140626 4.796875-36.441407l21.546875-21.542969c9.371094-9.375 9.371094-24.570312 0-33.945312-9.496094-9.070312-24.445312-9.070312-33.9375 0l-21.511719 21.542969c-4.042969-1.089844-8.210937-1.648438-12.398437-1.664063-8.457032-.003906-16.757813 2.242188-24.058594 6.507813-42.5625-29.609375-93.179688-45.4609378-145.03125-45.417969-141.386719 0-256 114.613281-256 256s114.613281 256 256 256 256-114.613281 256-256c.042969-51.851562-15.804688-102.46875-45.40625-145.039062zm3.75-80.617188c3.164062-3.023438 8.148438-3.023438 11.3125 0 3.121094 3.125 3.121094 8.1875 0 11.3125l-17.472656 17.472656c-1.542969-2.191406-3.265625-4.25-5.152344-6.152344-1.90625-1.886718-3.96875-3.613281-6.160156-5.160156zm-67.878906 33.945312c12.535156-12.261718 32.601562-12.148437 45 .246094 12.398437 12.398438 12.511718 32.464844.253906 45-12.667969 12.074219-32.585938 12.074219-45.253906 0-12.492188-12.496094-12.492188-32.75 0-45.246094zm35.0625 68.949219-46.503906 173.546875-20.632813 15.199219 50.175781-187.273437c1.496094.144531 3 .226562 4.523438.226562 4.199218-.019531 8.382812-.589844 12.4375-1.699219zm-32.40625-2.710937-15.257813 56.921875-15.6875-15.6875 11.320313-11.3125-11.320313-11.3125-11.3125 11.3125-11.3125-11.3125 11.304688-11.3125-11.3125-11.3125-11.304688 11.3125-15.695312-15.6875 56.929687-15.257813c4.765625 10.484375 13.164063 18.882813 23.648438 23.648438zm-199.90625-9.542969 28.210937-7.558594 7.726563-2.074219-12.433594-46.398437 23.203125-6.210937 12.421875 46.402343 114.398438-30.664062c-1.089844 4.054687-1.648438 8.234375-1.664063 12.429687 0 1.523438.082031 3.027344.21875 4.523438l-187.257813 50.167968zm-45.480469-4.375-8.285156-30.921875 61.816406-16.558594 8.285156 30.910156-25.894531 6.9375zm107.625-61.976563 15.457031-4.136718c8.535156-2.285156 17.308594 2.78125 19.59375 11.316406 2.289063 8.535156-2.777344 17.308594-11.3125 19.59375l-15.457031 4.136719zm-11.359375 441.367188c-132.546875 0-240-107.453125-240-240s107.453125-240 240-240c46.765625-.027344 92.496094 13.742188 131.472656 39.585938l-69.746094 18.6875c3.015626-11.027344-.101562-22.820313-8.167968-30.917969-8.066406-8.097657-19.851563-11.257813-30.886719-8.285157l-141.230469 37.808594-43.203125 44.714844 40.160157 11.488281c-48.484376 46.320313-66.410157 116.1875-46.207032 180.132813 20.199219 63.945312 75.007813 110.835937 141.304688 120.898437 66.300781 10.0625 132.554687-18.457031 170.816406-73.527343l-13.113281-9.167969c-35.433594 51.007812-97.199219 76.882812-158.40625 66.359375-61.210938-10.523438-110.789063-55.542969-127.148438-115.457032-16.363281-59.914062 3.453125-123.882812 50.820313-164.054687l1.542968.4375 26.472657-7.09375-30.34375 41.253906 156.566406-41.953125 22.226563 22.226563-11.328126 11.320312 11.308594 11.3125 11.320313-11.320312 11.3125 11.3125-11.320313 11.320312 11.320313 11.316407 11.320312-11.316407 22.214844 22.222657-41.949219 156.574218 61.894532-45.535156 51.390624-191.808594c25.839844 38.972656 39.609376 84.703125 39.585938 131.464844-.148438 132.484375-107.515625 239.851562-240 240zm-113.304688-381.175781-18.457031-5.28125 13.363281-13.789063zm0 0"/></svg>